:SAMPLES-PER-SECOND 30
:FULLY-SPECIFIED
:DEGREES
825
root  -33.6003 37.1254 34.0043 -177.412 -8.64335 176.453
RightUpLeg  -15.7745 -16.9651 -27.0111
RightLeg  22.4909 -7.35978 -3.55283
RightFoot  -5.79984 -0.67623 11.4603
RightToes  1.33877e-009 0 -3.6325e-017
Spine  28.6219 -0.0748688 1.02332
Spine1  9.87381 -0.0314835 0.496267
HEad  -32.3544 -11.9878 8.73579
LeftShoulder1  0.64743 1.3986 -24.5007
LeftArm  -28.8186 3.32755 -34.6107
LeftForeArm  89.3009 -78.3788 -109.302
LeftHand  -0.0355641 0.0495026 0.781193
RightShoulder  -0.0537865 -3.66361 22.5676
RightArm  -15.5945 4.40677 43.5783
RightForeArm  124.198 66.7402 152.047
RightHand  -0.2156 -0.0774422 -4.72075
LeftUpLeg  -29.5064 17.2971 2.24529
LeftLeg  38.0864 2.2552 2.27724
LeftFoot  -7.81611 0.0843839 -1.19333
LeftToes  -1.45701e-009 4.75788e-011 -4.21586e-011
826
root  -32.6079 36.8784 34.2421 -176.633 -8.34026 175.158
RightUpLeg  -18.3278 -18.9083 -27.218
RightLeg  23.9852 -5.52884 -2.88288
RightFoot  0.99872 -1.78416 16.8226
RightToes  1.33877e-009 0 -3.6325e-017
Spine  28.9548 -0.347625 0.644374
Spine1  9.56797 -0.190196 -0.308933
HEad  -33.3852 -11.8902 7.78327
LeftShoulder1  0.703271 1.22247 -24.6054
LeftArm  -29.0387 3.24687 -35.2639
LeftForeArm  89.3665 -78.3928 -109.204
LeftHand  -0.00550726 -0.266815 0.131707
RightShoulder  -0.0777385 -3.74395 22.8385
RightArm  -16.1209 5.20638 42.7843
RightForeArm  125.568 66.2488 152.806
RightHand  -0.170819 -0.533982 -4.06461
LeftUpLeg  -30.7149 17.1169 2.27186
LeftLeg  37.7971 2.38445 2.36544
LeftFoot  -6.42131 0.143529 -2.45573
LeftToes  -1.45701e-009 4.75788e-011 -4.21586e-011
827
root  -31.6422 36.8677 34.4075 -176.101 -7.63579 175.196
RightUpLeg  -21.7861 -21.086 -24.8614
RightLeg  27.17 -3.00786 -1.91164
RightFoot  0.663292 -1.41318 13.4012
RightToes  1.33877e-009 0 -3.6325e-017
Spine  29.3404 -0.769774 1.89759
Spine1  9.14491 -0.145092 -0.833394
HEad  -33.8509 -11.2277 6.71556
LeftShoulder1  0.798871 0.877212 -24.1445
LeftArm  -29.037 4.02484 -36.5481
LeftForeArm  88.8843 -78.3402 -109.466
LeftHand  -0.0662531 -0.384943 1.38799
RightShoulder  -0.0409444 -3.61877 22.6731
RightArm  -16.5384 5.92981 42.1114
RightForeArm  125.659 66.087 153.012
RightHand  -0.166091 -0.886884 -4.20413
LeftUpLeg  -30.9325 17.446 3.75988
LeftLeg  36.1566 2.61825 2.42554
LeftFoot  -4.55199 0.245934 -3.64738
LeftToes  -1.45701e-009 4.75788e-011 -4.21586e-011
828
root  -30.6095 36.9337 34.5218 -175.979 -7.36168 175.212
RightUpLeg  -23.8603 -22.373 -22.6633
RightLeg  29.5404 -2.1074 -1.5283
RightFoot  -0.408933 -1.13469 11.8014
RightToes  1.33877e-009 0 -3.6325e-017
Spine  29.4102 -1.04274 2.49673
Spine1  9.32173 -0.447174 -0.221216
HEad  -33.8152 -10.8341 5.69808
LeftShoulder1  0.738985 1.13835 -25.0619
LeftArm  -28.8608 3.5427 -36.7725
LeftForeArm  85.9837 -78.6047 -105.793
LeftHand  -0.0828706 -0.45165 1.72486
RightShoulder  0.0166167 -3.41878 22.1521
RightArm  -16.8426 7.13179 41.6134
RightForeArm  125.485 66.6768 152.26
RightHand  -0.127633 -0.416647 -2.94103
LeftUpLeg  -30.1018 17.2401 5.5041
LeftLeg  33.5878 3.05995 2.55223
LeftFoot  -2.55669 0.428106 -5.38272
LeftToes  -1.45701e-009 4.75788e-011 -4.21586e-011
829
root  -29.5851 37.1289 34.5513 -175.94 -7.50407 175.34
RightUpLeg  -24.6143 -24.545 -20.3432
RightLeg  30.1767 -0.867931 -0.781516
RightFoot  -0.826931 -0.932121 10.0391
RightToes  1.33877e-009 0 -3.6325e-017
Spine  29.0275 -1.20383 2.83187
Spine1  9.65609 -1.08952 1.63496
HEad  -33.3722 -10.3272 5.19812
LeftShoulder1  0.649953 1.49805 -26.2048
LeftArm  -28.2643 3.08267 -36.7761
LeftForeArm  82.8951 -78.774 -102.483
LeftHand  -0.0953477 0.00746289 2.08884
RightShoulder  0.0311517 -3.36467 21.4095
RightArm  -16.6329 8.14377 41.1427
RightForeArm  123.849 67.4949 151.006
RightHand  -0.151493 -0.318284 -3.46149
LeftUpLeg  -28.5597 16.2526 7.38385
LeftLeg  30.1462 3.55806 2.5733
LeftFoot  -1.25021 0.565381 -6.34062
LeftToes  -1.45701e-009 4.75788e-011 -4.21586e-011
830
root  -28.5282 37.3649 34.5065 -175.637 -7.68642 174.868
RightUpLeg  -25.3262 -26.7478 -18.5797
RightLeg  30.6483 0.420313 0.0277324
RightFoot  -1.66655 -0.734396 8.52443
RightToes  1.33877e-009 0 -3.6325e-017
Spine  28.2744 -1.55165 3.41033
Spine1  9.55852 -1.17501 0.999903
HEad  -32.5813 -10.6409 5.20807
LeftShoulder1  0.734321 1.20081 -25.6844
LeftArm  -27.5054 3.22802 -37.4889
LeftForeArm  79.2642 -78.9418 -98.3132
LeftHand  -0.0437331 -0.516287 0.917341
RightShoulder  -0.0543452 -3.66882 22.1129
RightArm  -16.3346 8.30893 40.0262
RightForeArm  122.253 68.1869 149.85
RightHand  -0.163575 -0.456949 -3.82566
LeftUpLeg  -26.9619 13.2281 8.77071
LeftLeg  26.6435 4.70722 2.90121
LeftFoot  -2.40252 0.575643 -7.16439
LeftToes  -1.45701e-009 4.75788e-011 -4.21586e-011
831
root  -27.5031 37.6941 34.4186 -175.569 -7.8057 174.538
RightUpLeg  -25.1602 -28.1311 -16.8755
RightLeg  30.1173 1.25604 0.55128
RightFoot  -2.19081 -0.56614 6.88933
RightToes  1.33877e-009 0 -3.6325e-017
Spine  27.6624 -1.70946 3.48793
Spine1  9.44288 -1.34582 0.989687
HEad  -32.1311 -10.3486 5.08009
LeftShoulder1  0.761183 1.11893 -25.735
LeftArm  -26.489 3.13528 -37.4002
LeftForeArm  74.5476 -79.0405 -93.4649
LeftHand  -0.0561507 -0.22596 1.19527
RightShoulder  -0.0153315 -3.53311 21.6198
RightArm  -16.0062 7.74651 39.7907
RightForeArm  121.074 68.6796 148.969
RightHand  -0.187226 0.168598 -3.95955
LeftUpLeg  -25.074 7.77448 10.4536
LeftLeg  23.0536 4.88052 2.62374
LeftFoot  -5.17127 0.370578 -6.22865
LeftToes  -1.45701e-009 4.75788e-011 -4.21586e-011
832
root  -26.6074 38.0556 34.3471 -175.53 -7.89727 174.564
RightUpLeg  -24.5652 -28.1991 -15.0764
RightLeg  28.6823 0.919484 0.312558
RightFoot  -2.07247 -0.445472 5.31869
RightToes  1.33877e-009 0 -3.6325e-017
Spine  27.1285 -2.01575 4.13519
Spine1  9.2291 -1.59392 1.03038
HEad  -32.0324 -10.2221 4.9007
LeftShoulder1  0.710028 1.30265 -26.0971
LeftArm  -25.5884 2.92846 -37.3602
LeftForeArm  70.5844 -79.0783 -89.0499
LeftHand  -0.0542924 -0.151845 1.16299
RightShoulder  -0.0525605 -3.66456 21.6407
RightArm  -15.4873 8.02429 39.1093
RightForeArm  119.419 69.3577 147.689
RightHand  -0.196036 -0.318881 -4.47471
LeftUpLeg  -23.6014 0.417316 12.1235
LeftLeg  19.4859 2.985 1.50778
LeftFoot  -7.25457 0.168119 -3.62922
LeftToes  -1.45701e-009 4.75788e-011 -4.21586e-011
833
root  -25.828 38.3857 34.2651 -175.646 -7.62011 174.663
RightUpLeg  -23.6899 -27.5125 -13.5304
RightLeg  26.9491 0.350505 -0.0379778
RightFoot  -1.94022 -0.36827 4.31178
RightToes  1.33877e-009 0 -3.6325e-017
Spine  26.3442 -2.27207 5.14571
Spine1  9.2765 -1.485 0.200121
HEad  -31.9504 -10.4182 4.61808
LeftShoulder1  0.793229 0.988648 -25.3251
LeftArm  -24.6787 3.31532 -38.1181
LeftForeArm  67.6375 -79.0523 -86.1596
LeftHand  -0.0576666 0.0870303 1.23724
RightShoulder  -0.099686 -3.82838 22.0322
RightArm  -15.2315 8.29799 38.0388
RightForeArm  118.104 70.1278 146.192
RightHand  -0.168324 -0.552833 -4.00071
LeftUpLeg  -22.9713 -5.82274 12.8664
LeftLeg  18.0505 0.186814 0.374415
LeftFoot  -7.15355 0.0737319 -0.899991
LeftToes  -1.45701e-009 4.75788e-011 -4.21586e-011
834
root  -25.1751 38.6309 34.1688 -175.635 -7.31616 175.081
RightUpLeg  -23.013 -27.2206 -11.7767
RightLeg  25.3064 0.125244 -0.181287
RightFoot  -1.94582 -0.308833 3.5961
RightToes  1.33877e-009 0 -3.6325e-017
Spine  25.275 -2.28084 5.68082
Spine1  9.42817 -1.64175 0.750691
HEad  -31.6973 -9.78908 4.65293
LeftShoulder1  0.756574 1.13957 -25.8054
LeftArm  -23.2418 2.66302 -37.7526
LeftForeArm  63.4171 -78.9607 -82.2772
LeftHand  -0.0558177 0.225916 1.23988
RightShoulder  -0.0675369 -3.71914 21.6081
RightArm  -15.1894 8.84281 37.392
RightForeArm  116.081 71.022 144.232
RightHand  -0.150229 -0.645408 -3.62565
LeftUpLeg  -23.3329 -5.39747 11.3574
LeftLeg  20.0946 -2.79291 -0.813767
LeftFoot  -7.64624 0.178248 -4.0768
LeftToes  -1.45701e-009 4.75788e-011 -4.21586e-011
835
root  -24.5771 38.9247 34.0887 -176.003 -7.36529 175.356
RightUpLeg  -21.3518 -27.7128 -10.5487
RightLeg  22.9167 0.294461 -0.0229826
RightFoot  -1.56851 -0.265735 2.98181
RightToes  1.33877e-009 0 -3.6325e-017
Spine  24.5803 -2.37197 6.29914
Spine1  9.42935 -1.65534 0.731269
HEad  -30.9608 -9.75509 4.26736
LeftShoulder1  0.789308 1.03771 -25.8157
LeftArm  -21.7007 1.58852 -38.0089
LeftForeArm  57.2859 -78.7397 -76.3771
LeftHand  -0.0534225 0.208968 1.18404
RightShoulder  -0.089039 -3.79546 21.6283
RightArm  -15.5386 9.58093 36.2442
RightForeArm  112.973 72.1583 141.336
RightHand  -0.161052 -0.486474 -3.76472
LeftUpLeg  -23.2069 -2.60108 8.12179
LeftLeg  22.8857 -3.36576 -1.21384
LeftFoot  -7.82202 0.184759 -4.47952
LeftToes  -1.45701e-009 4.75788e-011 -4.21586e-011
836
root  -24.0438 39.2407 34.0089 -176.278 -7.13037 175.323
RightUpLeg  -19.3378 -26.7966 -10.2268
RightLeg  19.978 -0.657861 0.333887
RightFoot  -0.881001 -0.232536 2.47661
RightToes  1.33877e-009 0 -3.6325e-017
Spine  23.7047 -2.23032 5.96125
Spine1  9.66427 -1.70672 1.05182
HEad  -30.1306 -9.43914 3.59827
LeftShoulder1  0.781049 1.06946 -25.9022
LeftArm  -20.1863 0.359916 -38.1259
LeftForeArm  51.0999 -78.4089 -71.5874
LeftHand  -0.0683003 0.322248 1.53823
RightShoulder  -0.0883058 -3.79183 21.7329
RightArm  -15.4401 10.9655 34.7109
RightForeArm  107.127 73.7391 136.317
RightHand  -0.197267 -0.355565 -4.53474
LeftUpLeg  -22.5432 0.414146 4.10828
LeftLeg  24.3636 -1.39197 -0.364952
LeftFoot  -8.04053 0.160493 -3.88884
LeftToes  -1.45701e-009 4.75788e-011 -4.21586e-011
837
root  -23.5612 39.5039 33.9166 -176.694 -6.51203 175.408
RightUpLeg  -17.0643 -23.8283 -10.5223
RightLeg  17.1335 -3.3389 1.02921
RightFoot  -0.15522 -0.187668 1.90194
RightToes  1.33877e-009 0 -3.6325e-017
Spine  22.8292 -2.08219 5.98386
Spine1  9.94356 -1.43031 0.540153
HEad  -29.0998 -9.31263 2.93216
LeftShoulder1  0.81257 0.935402 -25.4267
LeftArm  -19.141 -0.689663 -38.774
LeftForeArm  47.7772 -78.1432 -67.63
LeftHand  -0.06623 0.448312 1.52366
RightShoulder  -0.09322 -3.80984 21.5541
RightArm  -15.4869 12.4473 33.6856
RightForeArm  99.6932 75.3477 129.501
RightHand  -0.174645 -0.449664 -4.08741
LeftUpLeg  -20.9911 3.66059 0.288951
LeftLeg  23.7757 -0.762263 -0.0392243
LeftFoot  -8.771 0.150646 -4.42101
LeftToes  -1.45701e-009 4.75788e-011 -4.21586e-011
